<?xml version="1.0" encoding="UTF-8"?>
<!-- Do not edit this file with editors other than draw.io -->
<!DOCTYPE svg PUBLIC "-//W3C//DTD SVG 1.1//EN" "http://www.w3.org/Graphics/SVG/1.1/DTD/svg11.dtd">
<svg xmlns="http://www.w3.org/2000/svg" style="background: transparent; background-color: transparent; color-scheme: light dark;" xmlns:xlink="http://www.w3.org/1999/xlink" version="1.1" width="109px" height="109px" viewBox="0 0 109 109" content="&lt;mxfile host=&quot;app.diagrams.net&quot; agent=&quot;Mozilla/5.0 (Windows NT 10.0; Win64; x64) AppleWebKit/537.36 (KHTML, like Gecko) Chrome/147.0.0.0 Safari/537.36 Edg/147.0.0.0&quot; version=&quot;29.2.7&quot; scale=&quot;1&quot; border=&quot;0&quot;&gt;&#10;  &lt;diagram name=&quot;第 1 页&quot; id=&quot;VqiPSrLRSw0C0q8V4HNx&quot;&gt;&#10;    &lt;mxGraphModel dx=&quot;1795&quot; dy=&quot;1148&quot; grid=&quot;1&quot; gridSize=&quot;10&quot; guides=&quot;1&quot; tooltips=&quot;1&quot; connect=&quot;1&quot; arrows=&quot;1&quot; fold=&quot;1&quot; page=&quot;1&quot; pageScale=&quot;1&quot; pageWidth=&quot;827&quot; pageHeight=&quot;1169&quot; math=&quot;0&quot; shadow=&quot;0&quot;&gt;&#10;      &lt;root&gt;&#10;        &lt;mxCell id=&quot;0&quot; /&gt;&#10;        &lt;mxCell id=&quot;1&quot; parent=&quot;0&quot; /&gt;&#10;        &lt;mxCell id=&quot;2&quot; parent=&quot;1&quot; style=&quot;sketch=0;outlineConnect=0;fontColor=#232F3E;gradientColor=none;fillColor=#DD344C;strokeColor=none;dashed=0;verticalLabelPosition=bottom;verticalAlign=top;align=center;html=1;fontSize=12;fontStyle=0;aspect=fixed;pointerEvents=1;shape=mxgraph.aws4.temporary_security_credential;&quot; value=&quot;&quot; vertex=&quot;1&quot;&gt;&#10;          &lt;mxGeometry height=&quot;78&quot; width=&quot;77&quot; x=&quot;290&quot; y=&quot;410&quot; as=&quot;geometry&quot; /&gt;&#10;        &lt;/mxCell&gt;&#10;        &lt;mxCell id=&quot;3&quot; parent=&quot;1&quot; style=&quot;sketch=0;points=[[0,0,0],[0.25,0,0],[0.5,0,0],[0.75,0,0],[1,0,0],[0,1,0],[0.25,1,0],[0.5,1,0],[0.75,1,0],[1,1,0],[0,0.25,0],[0,0.5,0],[0,0.75,0],[1,0.25,0],[1,0.5,0],[1,0.75,0]];outlineConnect=0;fontColor=#232F3E;fillColor=#8C4FFF;strokeColor=#ffffff;dashed=0;verticalLabelPosition=bottom;verticalAlign=top;align=center;html=1;fontSize=12;fontStyle=0;aspect=fixed;shape=mxgraph.aws4.resourceIcon;resIcon=mxgraph.aws4.elasticsearch_service;&quot; value=&quot;&quot; vertex=&quot;1&quot;&gt;&#10;          &lt;mxGeometry height=&quot;78&quot; width=&quot;78&quot; x=&quot;320&quot; y=&quot;440&quot; as=&quot;geometry&quot; /&gt;&#10;        &lt;/mxCell&gt;&#10;      &lt;/root&gt;&#10;    &lt;/mxGraphModel&gt;&#10;  &lt;/diagram&gt;&#10;&lt;/mxfile&gt;&#10;"><defs/><g><g data-cell-id="0"><g data-cell-id="1"><g data-cell-id="Ud7GiYF_fCRea3LsNt8O-2"/><g data-cell-id="Ud7GiYF_fCRea3LsNt8O-3"/><g data-cell-id="CDiSns08embHJq0tK4kC-1"/><g data-cell-id="CDiSns08embHJq0tK4kC-4"/><g data-cell-id="CDiSns08embHJq0tK4kC-5"/><g data-cell-id="CDiSns08embHJq0tK4kC-6"><g transform="translate(0.5,0.5)"><rect x="0" y="0" width="77" height="78" fill="none" stroke="none" pointer-events="all"/><path d="M 58.18 49.33 L 61.69 49.33 L 61.69 63.33 L 50.75 63.33 L 50.75 59.82 L 58.18 59.82 Z M 59.94 73.61 C 52.46 73.61 46.38 67.52 46.38 60.05 C 46.38 52.57 52.46 46.49 59.94 46.49 C 67.41 46.49 73.5 52.57 73.5 60.05 C 73.5 67.52 67.41 73.61 59.94 73.61 Z M 59.94 42.98 C 50.53 42.98 42.87 50.64 42.87 60.05 C 42.87 69.45 50.53 77.11 59.94 77.11 C 69.35 77.11 77 69.45 77 60.05 C 77 50.64 69.35 42.98 59.94 42.98 Z M 3.5 64.42 L 40.03 64.42 L 40.03 67.92 L 1.75 67.92 C 0.78 67.92 0 67.14 0 66.17 L 0 58.51 L 3.5 58.51 Z M 65.4 14.24 C 66.81 14.24 67.96 15.39 67.96 16.8 C 67.96 18.21 66.81 19.35 65.4 19.35 C 63.99 19.35 62.85 18.21 62.85 16.8 C 62.85 15.39 63.99 14.24 65.4 14.24 Z M 65.4 22.86 C 68.74 22.86 71.46 20.14 71.46 16.8 C 71.46 13.45 68.74 10.74 65.4 10.74 C 62.06 10.74 59.34 13.45 59.34 16.8 C 59.34 20.14 62.06 22.86 65.4 22.86 Z M 21.9 14.24 L 47.61 14.24 C 48.38 14.24 49.05 13.75 49.28 13.02 C 50.92 7.86 55.67 4.39 61.09 4.39 C 67.93 4.39 73.5 9.96 73.5 16.8 C 73.5 23.64 67.93 29.2 61.09 29.2 C 55.67 29.2 50.92 25.73 49.28 20.58 C 49.05 19.85 48.38 19.35 47.61 19.35 L 43.25 19.35 C 42.78 19.35 42.33 19.54 42.01 19.87 L 39.55 22.32 L 37.1 19.87 C 36.77 19.54 36.33 19.35 35.86 19.35 L 33.4 19.35 C 32.93 19.35 32.49 19.54 32.16 19.87 L 29.7 22.32 L 27.25 19.87 C 26.92 19.54 26.48 19.35 26.01 19.35 L 22.98 19.35 L 19.86 16.62 Z M 21.17 22.43 C 21.49 22.71 21.9 22.86 22.32 22.86 L 25.29 22.86 L 28.47 26.04 C 29.15 26.72 30.26 26.72 30.94 26.04 L 34.12 22.86 L 35.14 22.86 L 38.31 26.04 C 39 26.72 40.11 26.72 40.79 26.04 L 43.97 22.86 L 46.39 22.86 C 48.81 28.8 54.57 32.71 61.09 32.71 C 69.86 32.71 77 25.57 77 16.8 C 77 8.03 69.86 0.89 61.09 0.89 C 54.57 0.89 48.81 4.8 46.39 10.74 L 21.09 10.74 C 20.58 10.74 20.09 10.96 19.76 11.35 L 16.07 15.66 C 15.44 16.39 15.52 17.48 16.24 18.12 Z M 0 43.57 C 0 34.8 7.13 27.67 15.9 27.67 C 22.44 27.67 28.2 31.57 30.62 37.52 L 33.03 37.52 L 36.2 34.34 C 36.86 33.68 38.03 33.68 38.68 34.34 L 41.86 37.52 L 42.87 37.52 L 46.05 34.34 C 46.73 33.65 47.84 33.65 48.53 34.33 L 51.72 37.52 L 54.68 37.52 C 55.11 37.52 55.51 37.67 55.83 37.95 L 57.26 39.18 L 54.96 41.83 L 54.03 41.02 L 50.99 41.02 C 50.53 41.02 50.09 40.84 49.76 40.51 L 47.29 38.05 L 44.84 40.51 C 44.51 40.83 44.06 41.02 43.6 41.02 L 41.13 41.02 C 40.67 41.02 40.22 40.83 39.89 40.51 L 37.44 38.05 L 34.99 40.51 C 34.66 40.83 34.22 41.02 33.75 41.02 L 29.39 41.02 C 28.62 41.02 27.95 40.53 27.72 39.8 C 26.09 34.64 21.34 31.18 15.9 31.18 C 9.07 31.18 3.5 36.73 3.5 43.57 C 3.5 50.41 9.07 55.98 15.9 55.98 C 21.34 55.98 26.09 52.52 27.72 47.36 C 27.95 46.63 28.62 46.14 29.39 46.14 L 44.18 46.14 L 44.18 49.64 L 30.62 49.64 C 28.2 55.58 22.44 59.49 15.9 59.49 C 7.13 59.49 0 52.35 0 43.57 Z M 11.6 46.13 C 10.19 46.13 9.04 44.98 9.04 43.58 C 9.04 42.17 10.19 41.02 11.6 41.02 C 13.01 41.02 14.15 42.17 14.15 43.58 C 14.15 44.98 13.01 46.13 11.6 46.13 Z M 11.6 37.52 C 8.26 37.52 5.54 40.24 5.54 43.58 C 5.54 46.92 8.26 49.64 11.6 49.64 C 14.94 49.64 17.66 46.92 17.66 43.58 C 17.66 40.24 14.94 37.52 11.6 37.52 Z" fill="#dd344c" stroke="none" pointer-events="all" style="fill: light-dark(rgb(221, 52, 76), rgb(255, 127, 147));"/></g></g><g data-cell-id="CDiSns08embHJq0tK4kC-3"><g transform="translate(0.5,0.5)"><path d="M 30 30 L 108 30 L 108 108 L 30 108 Z" fill="#8c4fff" stroke="none" pointer-events="all" style="fill: light-dark(rgb(140, 79, 255), rgb(177, 125, 255));"/><path d="M 50.41 56.39 L 38.95 56.39 C 38.31 56.39 37.8 56.9 37.8 57.53 L 37.8 98.81 C 37.8 99.45 38.31 99.96 38.95 99.96 L 50.41 99.96 C 51.05 99.96 51.56 99.45 51.56 98.81 L 51.56 57.53 C 51.56 56.9 51.05 56.39 50.41 56.39 Z M 40.09 97.67 L 40.09 58.68 L 49.27 58.68 L 49.27 97.67 Z M 56.15 64.41 L 53.85 64.41 L 53.85 49.51 C 53.85 48.87 54.37 48.36 55 48.36 L 66.47 48.36 C 67.1 48.36 67.61 48.87 67.61 49.51 L 67.61 54.09 L 65.32 54.09 L 65.32 50.65 L 56.15 50.65 Z M 65.32 90.79 L 67.61 90.79 L 67.61 98.81 C 67.61 99.45 67.1 99.96 66.47 99.96 L 55 99.96 C 54.37 99.96 53.85 99.45 53.85 98.81 L 53.85 81.61 L 56.15 81.61 L 56.15 97.67 L 65.32 97.67 Z M 72.2 52.95 L 69.91 52.95 L 69.91 39.19 C 69.91 38.55 70.42 38.04 71.05 38.04 L 82.52 38.04 C 83.15 38.04 83.67 38.55 83.67 39.19 L 83.67 55.24 L 81.37 55.24 L 81.37 40.33 L 72.2 40.33 Z M 81.37 93.08 L 83.67 93.08 L 83.67 98.81 C 83.67 99.45 83.15 99.96 82.52 99.96 L 71.05 99.96 C 70.42 99.96 69.91 99.45 69.91 98.81 L 69.91 91.93 L 72.2 91.93 L 72.2 97.67 L 81.37 97.67 Z M 99.72 46.07 L 99.72 85.05 L 97.43 85.05 L 97.43 47.21 L 88.25 47.21 L 88.25 59.83 L 85.96 59.83 L 85.96 46.07 C 85.96 45.43 86.47 44.92 87.11 44.92 L 98.57 44.92 C 99.21 44.92 99.72 45.43 99.72 46.07 Z M 88.32 79.93 C 89.38 77.78 89.98 75.36 89.98 72.81 C 89.98 63.8 82.65 56.47 73.64 56.47 C 64.63 56.47 57.31 63.8 57.31 72.81 C 57.31 81.82 64.63 89.15 73.64 89.15 C 76.97 89.15 80.06 88.14 82.64 86.43 L 92.51 95.33 C 93.33 96.07 94.37 96.44 95.4 96.43 C 96.58 96.43 97.76 95.96 98.61 95.01 C 100.2 93.24 100.06 90.51 98.29 88.91 Z M 59.6 72.81 C 59.6 65.06 65.9 58.76 73.64 58.76 C 81.39 58.76 87.69 65.06 87.69 72.81 C 87.69 80.55 81.39 86.85 73.64 86.85 C 65.9 86.85 59.6 80.55 59.6 72.81 Z M 96.91 93.48 C 96.16 94.3 94.88 94.37 94.04 93.63 L 84.48 85 C 85.49 84.1 86.4 83.09 87.16 81.97 L 96.76 90.62 C 97.58 91.36 97.65 92.65 96.91 93.48 Z M 73.64 61.33 C 67.31 61.33 62.17 66.48 62.17 72.81 C 62.17 79.14 67.31 84.28 73.64 84.28 C 79.97 84.28 85.12 79.14 85.12 72.81 C 85.12 66.48 79.97 61.33 73.64 61.33 Z M 73.64 81.99 C 68.58 81.99 64.46 77.87 64.46 72.81 C 64.46 67.74 68.58 63.62 73.64 63.62 C 78.71 63.62 82.83 67.74 82.83 72.81 C 82.83 77.87 78.71 81.99 73.64 81.99 Z" fill="#ffffff" stroke="none" pointer-events="all" style="fill: light-dark(rgb(255, 255, 255), rgb(18, 18, 18));"/></g></g></g></g></g></svg>